{"title":"Somebody.Up.There.Likes.Me.WEB-DL XVID AC3 BHRG","uid":8287588,"size":1020195281,"categoryP":"video","categoryS":"movies","magnet":"?xt=urn:btih:37f6bac3f750f0bbb0220fac7f0b13e7c341e8e9&amp;dn=Somebody.Up.There.Likes.Me.WEB-DL+XVID+AC3+BHRG&amp;tr=udp%3A%2F%2Ftracker.openbittorrent.com%3A80&amp;tr=udp%3A%2F%2Fopen.demonii.com%3A1337&amp;tr=udp%3A%2F%2Ftracker.coppersurfer.tk%3A6969&amp;tr=udp%3A%2F%2Fexodus.desync.com%3A6969","seeders":1,"leechers":0,"uploader":"Gh0stNet","files":3,"time":1363971514,"description":"Format                                   : AVI\nFormat/Info                              : Audio Video Interleave\nFile size                                : 968 MiB\nDuration                                 : 1h 15mn\nOverall bit rate                         : 1 795 Kbps\nWriting library                          : VirtualDub build 30091/release\n\nVideo\nID                                       : 0\nFormat                                   : MPEG-4 Visual\nFormat profile                           : Advanced Simple@L5\nFormat settings, BVOP                    : 2\nFormat settings, QPel                    : No\nFormat settings, GMC                     : No warppoints\nFormat settings, Matrix                  : Default (H.263)\nMuxing mode                              : Packed bitstream\nCodec ID                                 : XVID\nCodec ID/Hint                            : XviD\nDuration                                 : 1h 15mn\nBit rate                                 : 1 594 Kbps\nWidth                                    : 720 pixels\nHeight                                   : 400 pixels\nDisplay aspect ratio                     : 16:9\nFrame rate                               : 23.976 fps\nColor space                              : YUV\nChroma subsampling                       : 4:2:0\nBit depth                                : 8 bits\nScan type                                : Progressive\nCompression mode                         : Lossy\nBits/(Pixel*Frame)                       : 0.231\nStream size                              : 859 MiB (89%)\nWriting library                          : XviD 1.2.1 (UTC 2008-12-04)\n\nAudio\nID                                       : 1\nFormat                                   : AC-3\nFormat/Info                              : Audio Coding 3\nMode extension                           : CM (complete main)\nFormat settings, Endianness              : Big\nCodec ID                                 : 2000\nDuration                                 : 1h 15mn\nBit rate mode                            : Constant\nBit rate                                 : 192 Kbps\nChannel(s)                               : 2 channels\nChannel positions                        : Front: L R\nSampling rate                            : 48.0 KHz\nBit depth                                : 16 bits\nCompression mode                         : Lossy\nStream size                              : 103 MiB (11%)\n\nScreens:\n &lt;a href=&quot;\nhttp://i.imgur.com/dw7oZlx.png&quot; rel=&quot;nofollow&quot; target=&quot;_NEW&quot;&gt;\nhttp://i.imgur.com/dw7oZlx.png&lt;/a&gt; &lt;a href=&quot;\nhttp://i.imgur.com/XaC6nPA.png&quot; rel=&quot;nofollow&quot; target=&quot;_NEW&quot;&gt;\nhttp://i.imgur.com/XaC6nPA.png&lt;/a&gt;","torrent":{"xt":"urn:btih:37f6bac3f750f0bbb0220fac7f0b13e7c341e8e9","amp;dn":"Somebody.Up.There.Likes.Me.WEB-DL+XVID+AC3+BHRG","amp;tr":["udp%3A%2F%2Ftracker.openbittorrent.com%3A80","udp%3A%2F%2Fopen.demonii.com%3A1337","udp%3A%2F%2Ftracker.coppersurfer.tk%3A6969","udp%3A%2F%2Fexodus.desync.com%3A6969"],"infoHash":"37f6bac3f750f0bbb0220fac7f0b13e7c341e8e9","infoHashBuffer":{"type":"Buffer","data":[55,246,186,195,247,80,240,187,176,34,15,172,127,11,19,231,195,65,232,233]},"announce":[],"urlList":[]}}